# xmcd
#
# Track frame offsets:
#	150
#	12340
#	21785
#	26925
#	42451
#	60207
#	76315
#	96000
#	112286
#	117854
#	129922
#	145389
#	158240
#	159769
#	179868
#	194990
#	208921
#	209836
#	220706
#	233651
#	245959
#	262677
#
# Disc length: 3525 seconds
#
# Revision: 0
# Processed by: cddbd v1.5.2PL0 Copyright (c) Steve Scherf et al.
# Submitted via: dBpowerAMP V4.0
#
DISCID=480dc316
DTITLE=Various Artist - Songs from Chippy: Diaries of a West Texas Hooker
DYEAR=1900
DGENRE=
TTITLE0=Goodnight Dear Diary - Joe Ely
TTITLE1=Across The Great Divide - Jo Carol Pierce
TTITLE2=Chippy Narration - Jo Harvey Allen
TTITLE3=Buildin' More Fires - Joe Ely
TTITLE4=Wind's Gonna Blow You Away - Butch Hancock
TTITLE5=Gonna California - Terry Allen
TTITLE6=Thunderstorms And Neon Signs - Wayne Hancock
TTITLE7=Fate With A Capitol F - Joe Ely/Terry Allen
TTITLE8=The Way I Was Raised - Jo Harvey Allen
TTITLE9=Cup Of Tea - Joe Ely/Jo Harvey Allen
TTITLE10=Low Lights Of Town - Butch Hancock
TTITLE11=I Blame God - Jo Carol Pierce
TTITLE12=Oil Wells - Jo Harvey Allen/Joe Ely
TTITLE13=Cold Black Hammer - Joe Ely
TTITLE14=Boomtown Boogie - Butch Hancock/Terry Allen/Jo Carol Pierce/Joe Ely
TTITLE15=Back To Black - Wayne Hancock
TTITLE16=Just Dancin' - Jo Harvey Allen/Barry Tubb
TTITLE17=Whiskey And Women And Money To Burn - Joe Ely
TTITLE18=Morning Goodness - Robert Earl Keen, Jr./Butch Hancock 
TTITLE19=Angels Of The Wind - Terry Allen
TTITLE20=Roll Around - Butch Hancock
TTITLE21=Goodnight - Joe Ely
EXTD=
EXTT0=
EXTT1=
EXTT2=
EXTT3=
EXTT4=
EXTT5=
EXTT6=
EXTT7=
EXTT8=
EXTT9=
EXTT10=
EXTT11=
EXTT12=
EXTT13=
EXTT14=
EXTT15=
EXTT16=
EXTT17=
EXTT18=
EXTT19=
EXTT20=
EXTT21=
PLAYORDER=
